<?xml version="1.0" standalone="no"?><!DOCTYPE svg PUBLIC "-//W3C//DTD SVG 1.1//EN" "http://www.w3.org/Graphics/SVG/1.1/DTD/svg11.dtd"><svg t="1669881150555" class="icon" viewBox="0 0 1396 1024" version="1.1" xmlns="http://www.w3.org/2000/svg" p-id="40072" xmlns:xlink="http://www.w3.org/1999/xlink" width="272.65625" height="200"><path d="M1256.727273 1024H506.88a139.636364 139.636364 0 0 1-103.796364-46.545455l-390.981818-434.26909a46.545455 46.545455 0 0 1 0-62.37091L403.083636 46.545455a139.636364 139.636364 0 0 1 103.796364-46.545455H1256.727273a139.636364 139.636364 0 0 1 139.636363 139.636364v744.727272a139.636364 139.636364 0 0 1-139.636363 139.636364zM109.381818 512l363.054546 403.549091a46.545455 46.545455 0 0 0 34.443636 15.36H1256.727273a46.545455 46.545455 0 0 0 46.545454-46.545455V139.636364a46.545455 46.545455 0 0 0-46.545454-46.545455H506.88a46.545455 46.545455 0 0 0-34.443636 15.36z" p-id="40073" fill="#e98f36"></path><path d="M1024 755.898182a46.545455 46.545455 0 0 1-32.581818-13.498182l-395.636364-395.170909a46.545455 46.545455 0 0 1 0-65.629091 46.545455 46.545455 0 0 1 66.094546 0l394.705454 395.170909a46.545455 46.545455 0 0 1 0 65.629091 46.545455 46.545455 0 0 1-32.581818 13.498182z" p-id="40074" fill="#e98f36"></path><path d="M628.829091 755.898182a46.545455 46.545455 0 0 1-33.047273-11.170909 46.545455 46.545455 0 0 1 0-65.629091l395.170909-395.170909a46.545455 46.545455 0 0 1 65.629091 63.301818L661.876364 744.727273a46.545455 46.545455 0 0 1-33.047273 11.170909z" p-id="40075" fill="#e98f36"></path></svg>